<svg xmlns="http://www.w3.org/2000/svg" width="37.027" height="37.026" viewBox="0 0 37.027 37.026">
  <g id="chef_hat" data-name="chef hat" transform="translate(-110 -439)">
    <g id="chef-hat" transform="translate(110 439)">
      <path id="Path_18" data-name="Path 18" d="M36.966,14.9A8.412,8.412,0,0,0,30.636,7.7a.464.464,0,0,0-.222.9,7.482,7.482,0,0,1,1.843,13.8,7.864,7.864,0,0,0-4.109,6.8v3.294H24.219a21.912,21.912,0,0,1,3.1-11.586.464.464,0,1,0-.782-.5,22.839,22.839,0,0,0-3.246,12.084H18.969v-16.5a.464.464,0,1,0-.927,0v16.5H13.721c-.142-9.68-4.676-13.976-4.871-14.156a.464.464,0,0,0-.628.682c.045.041,4.429,4.2,4.573,13.475H11a.464.464,0,1,0,0,.927H28.148v2.843H8.863V29.193a7.863,7.863,0,0,0-4.109-6.8A7.481,7.481,0,0,1,7.591,8.423a7.685,7.685,0,0,1,1.535-.006,9.411,9.411,0,0,0,1.361,6.218.464.464,0,1,0,.786-.493,8.53,8.53,0,1,1,15.345-1.88.464.464,0,0,0,.882.287A9.457,9.457,0,1,0,9.29,7.5,8.534,8.534,0,0,0,7.5,7.5,8.408,8.408,0,0,0,4.3,23.2a6.935,6.935,0,0,1,3.635,5.992v7.529a.464.464,0,0,0,.464.464H28.612a.464.464,0,0,0,.464-.464V29.193A6.935,6.935,0,0,1,32.711,23.2,8.422,8.422,0,0,0,36.966,14.9Zm0,0" transform="translate(0.007 -0.16)" fill="#ffa705"/>
      <path id="Path_19" data-name="Path 19" d="M298.329,196.073a.464.464,0,0,0,.654-.043c.2-.233.331-.352.338-.359a.464.464,0,0,0-.628-.682c-.016.015-.165.154-.408.429A.464.464,0,0,0,298.329,196.073Zm0,0" transform="translate(-270.524 -176.819)" fill="#ffa705"/>
    </g>
    <g id="chef-hat-2" data-name="chef-hat" transform="translate(110 439)">
      <path id="Path_18-2" data-name="Path 18" d="M36.966,14.9A8.412,8.412,0,0,0,30.636,7.7a.464.464,0,0,0-.222.9,7.482,7.482,0,0,1,1.843,13.8,7.864,7.864,0,0,0-4.109,6.8v3.294H24.219a21.912,21.912,0,0,1,3.1-11.586.464.464,0,1,0-.782-.5,22.839,22.839,0,0,0-3.246,12.084H18.969v-16.5a.464.464,0,1,0-.927,0v16.5H13.721c-.142-9.68-4.676-13.976-4.871-14.156a.464.464,0,0,0-.628.682c.045.041,4.429,4.2,4.573,13.475H11a.464.464,0,1,0,0,.927H28.148v2.843H8.863V29.193a7.863,7.863,0,0,0-4.109-6.8A7.481,7.481,0,0,1,7.591,8.423a7.685,7.685,0,0,1,1.535-.006,9.411,9.411,0,0,0,1.361,6.218.464.464,0,1,0,.786-.493,8.53,8.53,0,1,1,15.345-1.88.464.464,0,0,0,.882.287A9.457,9.457,0,1,0,9.29,7.5,8.534,8.534,0,0,0,7.5,7.5,8.408,8.408,0,0,0,4.3,23.2a6.935,6.935,0,0,1,3.635,5.992v7.529a.464.464,0,0,0,.464.464H28.612a.464.464,0,0,0,.464-.464V29.193A6.935,6.935,0,0,1,32.711,23.2,8.422,8.422,0,0,0,36.966,14.9Zm0,0" transform="translate(0.007 -0.16)" fill="#ffa705"/>
      <path id="Path_19-2" data-name="Path 19" d="M298.329,196.073a.464.464,0,0,0,.654-.043c.2-.233.331-.352.338-.359a.464.464,0,0,0-.628-.682c-.016.015-.165.154-.408.429A.464.464,0,0,0,298.329,196.073Zm0,0" transform="translate(-270.524 -176.819)" fill="#ffa705"/>
    </g>
  </g>
</svg>
