<svg xmlns="http://www.w3.org/2000/svg" width="37.764" height="36.402" viewBox="0 0 37.764 36.402">
  <path id="iconfinder_Close_5416278" d="M29.882,11C19.454,11,11,19.149,11,29.2s8.454,18.2,18.882,18.2,18.882-8.149,18.882-18.2S40.305,11.013,29.882,11Zm5.384,21.412a1.365,1.365,0,0,1,0,1.979,1.491,1.491,0,0,1-2.053,0L29.882,31.18,26.551,34.39a1.491,1.491,0,0,1-2.053,0,1.365,1.365,0,0,1,0-1.979L27.829,29.2,24.5,25.99a1.364,1.364,0,0,1,.036-1.944,1.492,1.492,0,0,1,2.017-.034l3.331,3.211,3.331-3.211a1.492,1.492,0,0,1,2.017.034,1.364,1.364,0,0,1,.036,1.944L31.935,29.2Z" transform="translate(-11 -11)" fill="#ea3a5c"/>
</svg>
