<svg xmlns="http://www.w3.org/2000/svg" width="27.512" height="26.411" viewBox="0 0 27.512 26.411">
  <path id="iconfinder_thumbs-up_1608950" d="M68.4,148.909a1.1,1.1,0,0,0-1.883-.774,1.1,1.1,0,0,0,1.556,1.556A1.049,1.049,0,0,0,68.4,148.909Zm2.751-8.8v11a1.116,1.116,0,0,1-1.1,1.1H65.1a1.116,1.116,0,0,1-1.1-1.1v-11a1.116,1.116,0,0,1,1.1-1.1h4.952a1.116,1.116,0,0,1,1.1,1.1Zm20.359,0a3.769,3.769,0,0,1-.946,2.562,4.153,4.153,0,0,1,.258,1.307,3.569,3.569,0,0,1-.739,2.356,3.533,3.533,0,0,1,0,2.012,3.348,3.348,0,0,1-.929,1.616,4.131,4.131,0,0,1-.843,3.112,4.271,4.271,0,0,1-3.387,1.341H82.708a12.768,12.768,0,0,1-2.476-.267q-1.341-.267-2.089-.5t-2.072-.679a12.589,12.589,0,0,0-2.717-.757,1.138,1.138,0,0,1-.774-.335,1.03,1.03,0,0,1-.327-.765V140.088a1.038,1.038,0,0,1,.31-.748,1.128,1.128,0,0,1,.739-.353q.413-.034,1.307-1.014t1.737-2.081a25.382,25.382,0,0,1,1.737-2.063,2.633,2.633,0,0,0,.533-.825,5.5,5.5,0,0,0,.3-.834q.077-.318.232-1.04.12-.671.215-1.049a5.114,5.114,0,0,1,.335-.894,2.988,2.988,0,0,1,.585-.86,1.058,1.058,0,0,1,.774-.327,5.133,5.133,0,0,1,1.419.181,3.767,3.767,0,0,1,1.032.447,2.414,2.414,0,0,1,.688.7,3.986,3.986,0,0,1,.413.774,4.308,4.308,0,0,1,.206.86,7.389,7.389,0,0,1,.086.774q.009.258.009.671a5.37,5.37,0,0,1-.163,1.307,6.958,6.958,0,0,1-.327,1.032q-.163.378-.473.963-.052.1-.172.31a2.9,2.9,0,0,0-.189.378,4.33,4.33,0,0,0-.138.413h4.763a3.347,3.347,0,0,1,3.3,3.3Z" transform="translate(-64 -128)" fill="#fff"/>
</svg>
