<svg xmlns="http://www.w3.org/2000/svg" width="48.027" height="30.38" viewBox="0 0 48.027 30.38">
  <g id="shipped" transform="translate(0 -94.062)">
    <g id="Group_2" data-name="Group 2" transform="translate(0 94.062)">
      <g id="Group_1" data-name="Group 1" transform="translate(0 0)">
        <path id="Path_1" data-name="Path 1" d="M44.665,106.941l-1.244-4.975a.752.752,0,0,0,.6-.735v-.8a3.162,3.162,0,0,0-3.158-3.158H35.193V95.616a1.556,1.556,0,0,0-1.554-1.554H4.763a1.556,1.556,0,0,0-1.554,1.554v13.636a.752.752,0,0,0,1.5,0V95.616a.05.05,0,0,1,.05-.05H33.639a.05.05,0,0,1,.05.05v13.636a.752.752,0,1,0,1.5,0V108.4h8.875a2.461,2.461,0,0,1,2.337,1.7H44.066a.752.752,0,0,0-.752.752v1.6a2.359,2.359,0,0,0,2.356,2.356h.852v3.309H44.556a4.761,4.761,0,0,0-9,0h-.362v-5.665a.752.752,0,0,0-1.5,0v5.665h-15.6a4.761,4.761,0,0,0-9,0H4.763a.05.05,0,0,1-.05-.05v-1.654H7.971a.752.752,0,1,0,0-1.5H.752a.752.752,0,1,0,0,1.5H3.209v1.654a1.556,1.556,0,0,0,1.554,1.554H8.825c0,.017,0,.033,0,.05a4.763,4.763,0,0,0,9.525,0c0-.017,0-.033,0-.05H35.294c0,.017,0,.033,0,.05a4.763,4.763,0,1,0,9.525,0c0-.017,0-.033,0-.05h2.458a.752.752,0,0,0,.752-.752v-8.021A3.966,3.966,0,0,0,44.665,106.941Zm-9.472-8.167h5.665a1.656,1.656,0,0,1,1.654,1.654v.05H35.193Zm0,8.121v-4.913h6.682L43.1,106.9ZM13.586,122.938a3.259,3.259,0,1,1,3.259-3.259A3.262,3.262,0,0,1,13.586,122.938Zm26.47,0a3.259,3.259,0,1,1,3.259-3.259A3.262,3.262,0,0,1,40.056,122.938Zm6.467-9.625H45.67a.853.853,0,0,1-.852-.852v-.852h1.7v1.7Z" transform="translate(0 -94.062)" fill="#f4883a"/>
      </g>
    </g>
    <g id="Group_4" data-name="Group 4" transform="translate(12.032 118.126)">
      <g id="Group_3" data-name="Group 3" transform="translate(0 0)">
        <path id="Path_2" data-name="Path 2" d="M129.821,350.6a1.554,1.554,0,1,0,1.554,1.554A1.556,1.556,0,0,0,129.821,350.6Z" transform="translate(-128.267 -350.597)" fill="#f4883a"/>
      </g>
    </g>
    <g id="Group_6" data-name="Group 6" transform="translate(38.502 118.126)">
      <g id="Group_5" data-name="Group 5" transform="translate(0 0)">
        <path id="Path_3" data-name="Path 3" d="M412.009,350.6a1.554,1.554,0,1,0,1.554,1.554A1.556,1.556,0,0,0,412.009,350.6Z" transform="translate(-410.455 -350.597)" fill="#f4883a"/>
      </g>
    </g>
    <g id="Group_8" data-name="Group 8" transform="translate(19.251 114.917)">
      <g id="Group_7" data-name="Group 7">
        <path id="Path_4" data-name="Path 4" d="M217.209,316.393h-11.23a.752.752,0,0,0,0,1.5h11.23a.752.752,0,0,0,0-1.5Z" transform="translate(-205.227 -316.393)" fill="#f4883a"/>
      </g>
    </g>
    <g id="Group_10" data-name="Group 10" transform="translate(1.604 111.709)">
      <g id="Group_9" data-name="Group 9">
        <path id="Path_5" data-name="Path 5" d="M27.479,282.188H17.854a.752.752,0,0,0,0,1.5h9.625a.752.752,0,0,0,0-1.5Z" transform="translate(-17.102 -282.188)" fill="#f4883a"/>
      </g>
    </g>
    <g id="Group_12" data-name="Group 12" transform="translate(13.636 101.281)">
      <g id="Group_11" data-name="Group 11" transform="translate(0 0)">
        <path id="Path_6" data-name="Path 6" d="M157.883,171.243a.752.752,0,0,0-1.063,0l-6.687,6.687-3.479-3.479a.752.752,0,0,0-1.063,1.063l4.011,4.011a.752.752,0,0,0,1.063,0l7.219-7.219A.752.752,0,0,0,157.883,171.243Z" transform="translate(-145.37 -171.023)" fill="#f4883a"/>
      </g>
    </g>
  </g>
</svg>
